<?xml version="1.0" encoding="UTF-8"?>
<svg width="102px" height="96px" viewBox="0 0 102 96" version="1.1" xmlns="http://www.w3.org/2000/svg" xmlns:xlink="http://www.w3.org/1999/xlink">
    <!-- Generator: Sketch 42 (36781) - http://www.bohemiancoding.com/sketch -->
    <title>Icon</title>
    <desc>Created with Sketch.</desc>
    <defs>
        <linearGradient x1="50%" y1="0%" x2="50%" y2="97.0643335%" id="linearGradient-1">
            <stop stop-color="#4C4C4C" offset="0%"></stop>
            <stop stop-color="#333333" offset="100%"></stop>
        </linearGradient>
    </defs>
    <g id="Icons" stroke="none" stroke-width="1" fill="none" fill-rule="evenodd">
        <g id="icon128" transform="translate(-13.000000, -18.000000)">
            <g id="Icon" transform="translate(13.000000, 18.000000)">
                <path d="M39,84 L63,84 L52.7039978,95.2222666 C51.7544505,96.2587797 50.2464009,96.2597091 49.2960022,95.2222666 L39,84 Z M0,10.0073123 C0,4.48042632 4.48135729,0 10.0008878,0 L91.9991122,0 C97.52245,0 102,4.4865077 102,10.0073123 L102,73.9926877 C102,79.5195737 97.5186427,84 91.9991122,84 L10.0008878,84 C4.47754997,84 0,79.5134923 0,73.9926877 L0,10.0073123 Z" id="Back" fill="url(#linearGradient-1)"></path>
                <polygon id="M" fill="#FFFFFF" points="33.7700005 27 33.7700005 59 40.3582358 59 40.3582358 36.5462185 40.4478716 36.5462185 48.2910089 59 53.713978 59 61.5571153 36.3221289 61.6467512 36.3221289 61.6467512 59 68.2349865 59 68.2349865 27 58.3302245 27 51.2489921 49.0056022 51.1593562 49.0056022 43.6747624 27"></polygon>
                <path d="M83,0 L86,0 L86,6.49526119 C86,7.32630549 85.3342028,8 84.5,8 L84.5,8 C83.6715729,8 83,7.33168447 83,6.49526119 L83,0 Z" id="Line" fill-opacity="0.3" fill="#FFFFFF"></path>
                <path d="M66,0 L69,0 L69,3.49983513 C69,4.32835331 68.3342028,5 67.5,5 L67.5,5 C66.6715729,5 66,4.32567775 66,3.49983513 L66,0 Z" id="Line" fill-opacity="0.3" fill="#FFFFFF"></path>
                <path d="M49,0 L52,0 L52,6.49526119 C52,7.32630549 51.3342028,8 50.5,8 L50.5,8 C49.6715729,8 49,7.33168447 49,6.49526119 L49,0 Z" id="Line" fill-opacity="0.3" fill="#FFFFFF"></path>
                <path d="M32,0 L35,0 L35,3.49983513 C35,4.32835331 34.3342028,5 33.5,5 L33.5,5 C32.6715729,5 32,4.32567775 32,3.49983513 L32,0 Z" id="Line" fill-opacity="0.3" fill="#FFFFFF"></path>
                <path d="M15,0 L18,0 L18,6.49526119 C18,7.32630549 17.3342028,8 16.5,8 L16.5,8 C15.6715729,8 15,7.33168447 15,6.49526119 L15,0 Z" id="Line" fill-opacity="0.3" fill="#FFFFFF"></path>
            </g>
        </g>
    </g>
</svg>